<svg
 xmlns="http://www.w3.org/2000/svg"
 xmlns:xlink="http://www.w3.org/1999/xlink"
 width="263px" height="30px">
<path fill-rule="evenodd"  fill="rgb(22, 131, 82)"
 d="M256.433,28.999 L256.433,16.839 C256.433,14.519 255.473,13.359 253.553,13.359 C252.540,13.359 251.747,13.739 251.173,14.499 C250.600,15.259 250.313,16.266 250.313,17.519 L250.313,28.999 L243.793,28.999 L243.793,16.839 C243.793,14.519 242.833,13.359 240.914,13.359 C239.900,13.359 239.106,13.739 238.533,14.499 C237.959,15.259 237.673,16.266 237.673,17.519 L237.673,28.999 L231.153,28.999 L231.153,8.519 L237.393,8.519 L237.393,11.439 L237.513,11.439 C238.926,9.093 240.993,7.919 243.713,7.919 C246.406,7.919 248.326,9.119 249.473,11.520 L249.553,11.520 C251.099,9.119 253.247,7.919 255.993,7.919 C258.259,7.919 259.986,8.619 261.174,10.019 C262.360,11.419 262.953,13.306 262.953,15.679 L262.953,28.999 L256.433,28.999 ZM224.113,15.019 C222.939,16.019 222.353,17.613 222.353,19.799 L222.353,28.999 L215.833,28.999 L215.833,8.519 L222.073,8.519 L222.073,11.719 L222.193,11.719 C223.579,9.373 225.446,8.199 227.793,8.199 C228.406,8.199 228.833,8.253 229.073,8.359 L229.073,13.959 L228.913,13.959 C226.886,13.666 225.286,14.019 224.113,15.019 ZM206.393,26.719 L206.313,26.719 C205.006,28.586 202.980,29.520 200.233,29.520 C198.126,29.520 196.433,28.973 195.153,27.879 C193.873,26.786 193.233,25.253 193.233,23.279 C193.233,21.200 193.926,19.686 195.313,18.740 C196.699,17.793 198.619,17.159 201.073,16.839 C203.074,16.599 204.439,16.326 205.173,16.019 C205.906,15.713 206.273,15.226 206.273,14.559 C206.273,13.093 205.339,12.359 203.473,12.359 C201.473,12.359 200.366,13.239 200.153,14.999 L194.153,14.999 C194.233,12.973 195.066,11.293 196.653,9.959 C198.239,8.626 200.500,7.959 203.433,7.959 C206.367,7.959 208.580,8.519 210.073,9.639 C211.806,10.893 212.673,12.839 212.673,15.479 L212.673,25.799 C212.673,27.426 212.913,28.399 213.393,28.719 L213.393,28.999 L207.073,28.999 C206.807,28.626 206.580,27.866 206.393,26.719 ZM206.433,19.239 C205.793,19.559 204.673,19.919 203.074,20.319 C201.766,20.613 200.846,20.959 200.313,21.359 C199.780,21.759 199.513,22.333 199.513,23.079 C199.513,24.599 200.446,25.359 202.313,25.359 C203.539,25.359 204.533,25.019 205.293,24.339 C206.053,23.660 206.433,22.773 206.433,21.679 L206.433,19.239 ZM177.593,12.159 L189.473,12.159 L189.473,17.879 L177.593,17.879 L177.593,28.999 L170.513,28.999 L170.513,0.399 L191.793,0.399 L191.793,6.359 L177.593,6.359 L177.593,12.159 ZM154.273,8.519 L160.793,8.519 L160.793,28.999 L154.273,28.999 L154.273,8.519 ZM154.273,0.399 L160.793,0.399 L160.793,5.679 L154.273,5.679 L154.273,0.399 ZM145.194,28.999 L140.273,20.639 L138.313,22.719 L138.313,28.999 L131.873,28.999 L131.873,0.399 L138.313,0.399 L138.313,15.439 L144.393,8.519 L151.913,8.519 L144.713,16.199 L152.753,28.999 L145.194,28.999 ZM116.433,23.739 C117.206,24.526 118.246,24.919 119.553,24.919 C121.233,24.919 122.366,24.239 122.953,22.879 L129.313,22.879 C128.833,24.853 127.686,26.466 125.874,27.719 C124.086,28.973 121.953,29.599 119.473,29.599 C116.166,29.599 113.519,28.579 111.533,26.539 C109.547,24.500 108.553,21.893 108.553,18.719 C108.553,15.626 109.533,13.053 111.493,10.999 C113.453,8.946 115.979,7.919 119.073,7.919 C121.873,7.919 124.206,8.773 126.073,10.479 C128.526,12.719 129.726,16.039 129.673,20.439 L114.953,20.439 C115.166,21.853 115.660,22.953 116.433,23.739 ZM123.073,16.559 C122.966,15.333 122.560,14.359 121.853,13.639 C121.146,12.919 120.260,12.559 119.193,12.559 C116.873,12.559 115.473,13.893 114.993,16.559 L123.073,16.559 ZM99.993,16.839 C99.993,14.519 99.033,13.359 97.113,13.359 C96.099,13.359 95.306,13.739 94.733,14.499 C94.160,15.259 93.873,16.266 93.873,17.519 L93.873,28.999 L87.353,28.999 L87.353,16.839 C87.353,14.519 86.393,13.359 84.473,13.359 C83.459,13.359 82.666,13.739 82.093,14.499 C81.519,15.259 81.234,16.266 81.234,17.519 L81.234,28.999 L74.713,28.999 L74.713,8.519 L80.953,8.519 L80.953,11.439 L81.073,11.439 C82.486,9.093 84.553,7.919 87.273,7.919 C89.967,7.919 91.887,9.119 93.034,11.520 L93.113,11.520 C94.660,9.119 96.807,7.919 99.553,7.919 C101.819,7.919 103.546,8.619 104.733,10.019 C105.920,11.419 106.513,13.306 106.513,15.679 L106.513,28.999 L99.993,28.999 L99.993,16.839 ZM65.273,26.719 L65.193,26.719 C63.886,28.586 61.859,29.520 59.113,29.520 C57.006,29.520 55.313,28.973 54.033,27.879 C52.753,26.786 52.114,25.253 52.114,23.279 C52.114,21.200 52.806,19.686 54.193,18.740 C55.580,17.793 57.499,17.159 59.953,16.839 C61.953,16.599 63.319,16.326 64.053,16.019 C64.787,15.713 65.153,15.226 65.153,14.559 C65.153,13.093 64.219,12.359 62.353,12.359 C60.353,12.359 59.247,13.239 59.033,14.999 L53.033,14.999 C53.113,12.973 53.946,11.293 55.534,9.959 C57.120,8.626 59.379,7.959 62.313,7.959 C65.247,7.959 67.459,8.519 68.953,9.639 C70.686,10.893 71.553,12.839 71.553,15.479 L71.553,25.799 C71.553,27.426 71.793,28.399 72.274,28.719 L72.274,28.999 L65.953,28.999 C65.687,28.626 65.459,27.866 65.273,26.719 ZM65.313,19.239 C64.673,19.559 63.553,19.919 61.953,20.319 C60.646,20.613 59.726,20.959 59.193,21.359 C58.660,21.759 58.393,22.333 58.393,23.079 C58.393,24.599 59.326,25.359 61.193,25.359 C62.419,25.359 63.413,25.019 64.173,24.339 C64.933,23.660 65.313,22.773 65.313,21.679 L65.313,19.239 ZM46.033,15.019 C44.860,16.019 44.273,17.613 44.273,19.799 L44.273,28.999 L37.754,28.999 L37.754,8.519 L43.993,8.519 L43.993,11.719 L44.113,11.719 C45.499,9.373 47.366,8.199 49.713,8.199 C50.326,8.199 50.753,8.253 50.993,8.359 L50.993,13.959 L50.833,13.959 C48.806,13.666 47.206,14.019 46.033,15.019 ZM28.113,8.519 L34.633,8.519 L34.633,28.999 L28.113,28.999 L28.113,8.519 ZM28.113,0.399 L34.633,0.399 L34.633,5.679 L28.113,5.679 L28.113,0.399 ZM18.353,28.999 L10.113,16.639 L7.714,19.159 L7.714,28.999 L0.633,28.999 L0.633,0.399 L7.714,0.399 L7.714,10.759 L17.553,0.399 L25.953,0.399 L14.993,11.879 L26.593,28.999 L18.353,28.999 Z"/>
</svg>